<?xml version="1.0" encoding="UTF-8"?>
<svg version="1.1" xmlns="http://www.w3.org/2000/svg" width="3305" height="650">
<path d="M0 0 C159.06 0 318.12 0 482 0 C480.82396498 5.88017509 479.68332221 11.49522119 478.12182617 17.23999023 C477.94310187 17.90114869 477.76437757 18.56230715 477.58023739 19.24350071 C476.98760491 21.43272575 476.39029164 23.62064425 475.79296875 25.80859375 C475.36037468 27.40291553 474.92808202 28.99731911 474.49606323 30.59179688 C473.55986804 34.04454557 472.62158204 37.49671678 471.68167114 40.94845581 C470.15032404 46.57225674 468.62358898 52.1973039 467.09741211 57.82250977 C465.17150194 64.91973434 463.2443755 72.01662675 461.31580067 79.11312771 C457.58695054 92.83410439 453.86607153 106.55723055 450.1484375 120.28125 C449.56667311 122.42878279 448.98490633 124.57631493 448.40313721 126.72384644 C447.51992429 129.98413328 446.63671325 133.24442063 445.75352097 136.50471306 C442.38661226 148.93322326 439.01764684 161.36117581 435.6484375 173.7890625 C435.33678398 174.93865574 435.02513046 176.08824898 434.7040329 177.27267838 C423.8308172 217.38019442 412.95405615 257.48674914 402.07685852 297.59318542 C395.71530443 321.04953923 389.35421081 344.5060179 382.99320221 367.96251965 C380.66755638 376.53842197 378.3418471 385.11430709 376.01611328 393.69018555 C374.6865186 398.59293489 373.35692892 403.49568558 372.02734375 408.3984375 C371.53359379 410.21910579 371.53359379 410.21910579 371.02986908 412.07655525 C365.59317232 432.12411226 360.15749862 452.17194655 354.72207451 472.21984863 C349.057361 493.11329506 343.39095364 514.00628165 337.72328186 534.89892578 C334.22909279 547.77982185 330.7364221 560.66112784 327.24568272 573.54295921 C324.85538764 582.3634616 322.46360484 591.18355966 320.07063198 600.00333595 C318.68817491 605.09887234 317.30643804 610.19460134 315.92654419 615.29083252 C314.66512186 619.94948156 313.40177179 624.6076032 312.13684082 629.26530075 C311.6778302 630.95685248 311.21955279 632.64860336 310.76205444 634.34056473 C310.14353105 636.62764282 309.52242826 638.91400449 308.90063477 641.20019531 C308.63066099 642.20219436 308.63066099 642.20219436 308.35523319 643.22443581 C307.70973934 645.58948415 307.09940584 647.80118832 306 650 C217.69072723 650.08631464 129.38088841 650.14399499 -62.9882679 649.61044246 C-72.98820777 649.57534698 -82.98815263 649.54225269 -92.98810301 649.51029928 C-106.94015723 649.46568815 -120.89219223 649.41752048 -134.84421235 649.36322176 C-136.22673911 649.35785039 -137.60926588 649.35248384 -138.99179268 649.34712219 C-139.66971623 649.34449282 -140.34763979 649.34186344 -141.04610648 649.33915439 C-145.74982289 649.32114552 -150.45354233 649.30556168 -155.15727043 649.29090881 C-161.38475599 649.27137655 -167.6122067 649.24726002 -173.83966088 649.21950519 C-176.09706389 649.21020036 -178.35447423 649.20250459 -180.61188865 649.19658196 C-183.68671569 649.18824811 -186.76146115 649.173964 -189.83625793 649.15821838 C-190.71205362 649.15724026 -191.5878493 649.15626213 -192.49018425 649.15525436 C-198.70134065 649.11445016 -204.8232322 648.64268175 -211 648 C-211 647.67 -211 647.34 -211 647 C-209.64358398 646.97812622 -209.64358398 646.97812622 -208.25976562 646.95581055 C-158.60517301 646.0655261 -111.19898271 637.78753164 -67 614 C-66.28827637 613.62407715 -65.57655273 613.2481543 -64.84326172 612.86083984 C-43.1222546 601.36259057 -23.67941093 587.04660183 -6 570 C-5.35740234 569.38463379 -4.71480469 568.76926758 -4.05273438 568.13525391 C5.12336539 559.30886647 13.47316554 550.26891996 21 540 C21.42474609 539.43071777 21.84949219 538.86143555 22.28710938 538.27490234 C28.80507525 529.5308687 34.58724501 520.46360705 40 511 C40.33741211 510.42233887 40.67482422 509.84467773 41.02246094 509.24951172 C53.55418295 487.68883683 61.1004432 463.54266521 65 439 C65.13277344 438.16984375 65.26554687 437.3396875 65.40234375 436.484375 C69.25495627 406.29678103 62.83155599 373.86627608 44.046875 349.51171875 C43.03367187 348.26841797 43.03367187 348.26841797 42 347 C40.98679687 345.74123047 40.98679687 345.74123047 39.953125 344.45703125 C21.85287608 323.15290616 -5.18332212 312.17588993 -32.19140625 307.640625 C-35 307 -35 307 -37 305 C-32.82323464 303.42232399 -28.64255713 301.86856052 -24.43359375 300.37890625 C-6.26959347 293.83935638 11.38320109 285.4491974 27 274 C27.95261719 273.31808594 28.90523437 272.63617188 29.88671875 271.93359375 C69.24904381 243.17079674 98.13275277 203.40500804 110.8125 156.125 C111.10483521 155.03964966 111.10483521 155.03964966 111.40307617 153.93237305 C114.35623507 142.33969508 115.39139798 130.88193882 115.375 118.9375 C115.37445618 118.26290741 115.37391235 117.58831482 115.37335205 116.89328003 C115.25635703 85.16095463 104.44009377 57.99589651 81.90625 35.46923828 C59.72782966 14.21491878 29.36839793 6.20845887 0 1 C0 0.67 0 0.34 0 0 Z " fill="#FFFFFF" transform="translate(348,0)"/>
<path d="M0 0 C29.20620454 -0.04582444 58.4124065 -0.08112137 87.61863975 -0.10213066 C91.0825112 -0.10463147 94.54638257 -0.10722017 98.01025391 -0.10986328 C98.69972246 -0.1103879 99.38919101 -0.11091252 100.09955254 -0.11145304 C111.19984015 -0.12010793 122.30010662 -0.13585015 133.40038177 -0.15430559 C144.82720272 -0.17314264 156.25400666 -0.18399629 167.68084359 -0.18817699 C174.08355287 -0.19076402 180.48621451 -0.19676074 186.88890839 -0.21146011 C248.86374077 -0.34822927 248.86374077 -0.34822927 274.9375 3.8125 C276.039729 3.98426758 277.14195801 4.15603516 278.27758789 4.33300781 C306.36289845 8.87081794 336.76126462 16.57856006 355.3203125 39.91796875 C359.74392931 46.22692777 362.95200472 52.56841315 365 60 C365.17515137 60.61738037 365.35030273 61.23476074 365.53076172 61.87084961 C371.87438223 86.63700052 365.49774813 114.51559449 357 138 C356.74379883 138.71462402 356.48759766 139.42924805 356.22363281 140.16552734 C343.7892811 174.15327542 319.71732123 203.05486964 287 219 C281.41219213 221.53221761 275.72005654 223.78677341 270 226 C268.3327063 226.66509693 266.66591259 227.33145122 265 228 C265.64960693 228.29656494 266.29921387 228.59312988 266.96850586 228.89868164 C269.96388392 230.2745478 272.9505845 231.66836311 275.9375 233.0625 C276.95908203 233.52849609 277.98066406 233.99449219 279.03320312 234.47460938 C292.37565875 240.74087448 302.95153023 249.34472583 308.9921875 263.03125 C320.11832125 295.80590756 305.94768894 334.12431861 297.26899719 366.10145569 C289.86462805 388.77083008 289.86462805 388.77083008 290 412 C292.4125041 414.66207349 294.59371141 415.20020058 298 416 C297.68872484 417.58357459 297.37592711 419.16684993 297.0625 420.75 C296.80146484 422.07257813 296.80146484 422.07257813 296.53515625 423.421875 C296.07752809 425.62650703 295.54609986 427.81560057 295 430 C247.48 430 199.96 430 151 430 C151 421.09506227 151.05432469 413.14609531 152.4375 404.5 C152.60580322 403.42395508 152.77410645 402.34791016 152.94750977 401.23925781 C155.33965603 386.87637546 158.92598585 372.75868385 162.38645935 358.62402344 C163.98381808 352.09604586 165.51514857 345.55453404 167 339 C167.1952124 338.14760742 167.3904248 337.29521484 167.59155273 336.41699219 C170.49719345 323.59227865 173.15206638 307.89990706 166 296 C157.66102776 285.7588198 144.40967498 283.64711918 132 282 C129.32960961 281.77610292 126.68187041 281.58627368 124.0078125 281.453125 C122.86803452 281.39325157 122.86803452 281.39325157 121.70523071 281.33216858 C110.93592727 280.80430103 100.15422665 280.63983761 89.375 280.4375 C87.19270252 280.39417211 85.01041078 280.35055407 82.828125 280.30664062 C77.55214463 280.20109237 72.27610549 280.09908611 67 280 C66.66653061 281.4646595 66.66653061 281.4646595 66.32632446 282.95890808 C63.57425793 294.91705942 60.46088967 306.76483742 57.2734375 318.61328125 C56.72000392 320.67745713 56.16675497 322.74168252 55.61367798 324.80595398 C54.45713484 329.1203428 53.29883539 333.43425477 52.13916016 337.74780273 C50.68458017 343.15856697 49.2336381 348.5702978 47.7840023 353.9823885 C46.64053531 358.25017693 45.49537843 362.51751064 44.34975052 366.78471947 C43.81612976 368.77280924 43.28289633 370.76100304 42.75013351 372.74932289 C37.62479498 391.86864858 32.29826228 410.9262558 27 430 C-19.86 430 -66.72 430 -115 430 C-110.40497599 410.47114795 -110.40497599 410.47114795 -108.46411133 403.27441406 C-108.12762306 402.01402203 -108.12762306 402.01402203 -107.78433704 400.72816753 C-107.05266505 397.9899965 -106.31739317 395.25280714 -105.58203125 392.515625 C-105.05100697 390.53151518 -104.52020057 388.54734704 -103.98959351 386.56312561 C-102.56403732 381.23489822 -101.13525987 375.90753964 -99.70580673 370.5803566 C-98.49967959 366.08376732 -97.2954887 361.58666047 -96.09131718 357.08954716 C-85.49966997 317.53413195 -74.8674429 277.98959468 -64.22960663 238.44658089 C-58.97579709 218.9164382 -53.73270671 199.38342694 -48.49303436 179.8494873 C-47.59048079 176.48482701 -46.68778014 173.12020619 -45.78508186 169.75558472 C-41.66462186 154.39721892 -37.54547701 139.03850244 -33.43125629 123.67846394 C-31.50641436 116.49226592 -29.58081299 109.30627165 -27.65477276 102.12039471 C-26.52695142 97.91236397 -25.3995298 93.70422735 -24.27334595 89.49575806 C-18.62510373 68.38917173 -12.90946668 47.30154669 -7.15600586 26.22338867 C-6.45840315 23.66674334 -5.76082962 21.11009005 -5.06328583 18.55342865 C-3.37585943 12.36886083 -1.6880763 6.18439046 0 0 Z M115 101 C110.42430539 116.81741913 106.03135487 132.68309102 101.71142578 148.57202148 C100.7945635 151.94310061 99.87163586 155.3124909 98.94754982 158.6815958 C98.05703367 161.93368392 97.17353661 165.18766976 96.2890625 168.44140625 C95.95790436 169.64543594 95.62674622 170.84946564 95.28555298 172.08998108 C94.9845871 173.2031218 94.68362122 174.31626251 94.37353516 175.46313477 C94.1073941 176.43904068 93.84125305 177.41494659 93.56704712 178.42042542 C92.85686939 181.21092662 92.85686939 181.21092662 93 185 C102.05945118 185.07019129 111.11880562 185.12315599 120.17847157 185.15543652 C124.38739082 185.17094668 128.5961211 185.19190885 132.80493164 185.22631836 C175.37900219 186.34351366 175.37900219 186.34351366 212.25 167.5 C222.35334145 156.84966235 226.55973984 143.86978066 226.3125 129.40625 C225.87067921 124.59040339 224.58131299 121.05866822 222 117 C221.61070312 116.37609375 221.22140625 115.7521875 220.8203125 115.109375 C214.20331273 106.1039907 202.54053749 103.01089822 192.02056122 101.26446152 C185.46821306 100.40685625 178.81951323 100.640591 172.2265625 100.70703125 C170.56505725 100.71264277 168.90354695 100.71690548 167.24203491 100.71989441 C162.91839321 100.73122096 158.59506517 100.7605794 154.27154541 100.79400635 C149.83992757 100.82497381 145.40825789 100.83845611 140.9765625 100.85351562 C132.31756613 100.8854639 123.65882234 100.93650792 115 101 Z " fill="#FFFFFF" transform="translate(1379,209)"/>
<path d="M0 0 C0.9731012 -0.00570007 1.94620239 -0.01140015 2.9487915 -0.01727295 C4.99921609 -0.02665358 7.04965528 -0.03322902 9.10009766 -0.03710938 C12.15425861 -0.04672121 15.20771765 -0.07777337 18.26171875 -0.109375 C61.67296882 -0.34319727 106.39399134 10.50375884 138.453125 41.203125 C139.27425781 41.94949219 140.09539062 42.69585937 140.94140625 43.46484375 C163.03659478 64.25425131 174.54514445 96.10709151 175.58496094 125.9921875 C175.84103626 137.41704048 176.07094137 148.87841038 174.453125 160.203125 C129.903125 160.203125 85.353125 160.203125 39.453125 160.203125 C38.793125 154.923125 38.133125 149.643125 37.453125 144.203125 C34.31392508 132.34392529 28.82640128 122.21580269 18.453125 115.203125 C-0.28458961 104.91994322 -21.21662485 104.1844464 -41.62011719 109.67578125 C-56.73516073 114.15761056 -69.07088158 122.60489879 -80.546875 133.203125 C-81.20945312 133.79609375 -81.87203125 134.3890625 -82.5546875 135 C-91.92179516 143.80072441 -99.2485219 155.10035211 -105.546875 166.203125 C-105.93343262 166.88052734 -106.31999023 167.55792969 -106.71826172 168.25585938 C-125.6353939 201.78293061 -138.97423547 242.87659591 -138.921875 281.578125 C-138.92133118 282.25944489 -138.92078735 282.94076477 -138.92022705 283.64273071 C-138.86144035 299.66351734 -136.12446608 314.31956631 -126.296875 327.515625 C-111.20876678 342.26082167 -92.78107705 345.75386474 -72.43969727 345.69287109 C-62.24015793 345.45388239 -53.11166587 343.69277404 -43.546875 340.203125 C-42.8544873 339.95143555 -42.16209961 339.69974609 -41.44873047 339.44042969 C-21.47001408 331.91825136 -0.38247013 318.87431526 9.453125 299.203125 C-20.246875 298.708125 -20.246875 298.708125 -50.546875 298.203125 C-49.42184832 289.20291154 -49.42184832 289.20291154 -48.56018066 286.02088928 C-48.26999809 284.93375641 -48.26999809 284.93375641 -47.97395325 283.82466125 C-47.76405258 283.06018173 -47.55415192 282.29570221 -47.33789062 281.50805664 C-47.11501877 280.67944122 -46.89214691 279.85082581 -46.66252136 278.99710083 C-45.93137068 276.2843591 -45.19245779 273.5738034 -44.453125 270.86328125 C-43.9409079 268.97149161 -43.42907284 267.07959849 -42.91760254 265.18760681 C-41.84837203 261.23701348 -40.77544935 257.28744806 -39.69970703 253.33862305 C-38.3182562 248.26693374 -36.94469637 243.19314832 -35.57367706 238.11863041 C-34.51943071 234.2190222 -33.46177889 230.32034439 -32.40299988 226.42196465 C-31.8949423 224.55021766 -31.38779021 222.67822466 -30.88154602 220.8059864 C-30.17634665 218.20053911 -29.46675101 215.59633066 -28.75585938 212.99243164 C-28.44100838 211.82445793 -28.44100838 211.82445793 -28.11979675 210.63288879 C-26.66127093 205.31752093 -26.66127093 205.31752093 -25.546875 204.203125 C-23.0553478 204.10540188 -20.59156992 204.07316682 -18.09959412 204.08287048 C-16.91612407 204.08158885 -16.91612407 204.08158885 -15.70874554 204.08028132 C-13.04465873 204.07862411 -10.38063382 204.08415179 -7.71655273 204.08959961 C-5.81495159 204.08988146 -3.91335034 204.0897238 -2.01174927 204.0891571 C3.16778784 204.08886903 8.34730201 204.09476737 13.52683377 204.10173106 C18.93341027 204.10796294 24.33998724 204.10856827 29.74656677 204.10975647 C39.99237791 204.11287028 50.23817843 204.12108433 60.48398489 204.13110596 C72.14521163 204.14226557 83.80643886 204.14777716 95.46766961 204.15280139 C119.4628273 204.1632669 143.45797556 204.1808673 167.453125 204.203125 C166.38433428 210.37139538 165.23642816 216.45466407 163.60327148 222.50341797 C163.42801437 223.15745417 163.25275726 223.81149036 163.07218933 224.48534584 C162.49374387 226.63982689 161.90900262 228.79254405 161.32421875 230.9453125 C160.90211623 232.51246681 160.48042116 234.0797309 160.05909729 235.64709473 C159.15162653 239.01956989 158.2413579 242.39127243 157.32885742 245.76239014 C155.86529117 251.1693659 154.40781747 256.57797275 152.95117188 261.98681641 C151.13813554 268.71727362 149.32349261 275.44729406 147.50690651 282.17679405 C143.97069446 295.27686089 140.44597926 308.37999673 136.92578125 321.484375 C136.65683422 322.48550261 136.38788719 323.48663021 136.11079025 324.51809502 C135.02899835 328.5449542 133.94722609 332.57181867 132.86551857 336.59870052 C129.97071279 347.37487094 127.07349961 358.15039371 124.17578125 368.92578125 C123.80209349 370.31538653 123.80209349 370.31538653 123.42085648 371.73306465 C117.1034968 395.22449098 110.77985773 418.71422074 104.453125 442.203125 C74.093125 442.203125 43.733125 442.203125 12.453125 442.203125 C13.17286514 433.56624327 14.11678958 425.14756177 15.43554688 416.609375 C16.11161233 412.09339095 16.62708014 407.7864649 16.453125 403.203125 C15.61394531 403.91855469 14.77476562 404.63398437 13.91015625 405.37109375 C-11.88333375 426.91809454 -41.74053539 440.82257605 -74.484375 448.078125 C-75.34579102 448.26922852 -76.20720703 448.46033203 -77.09472656 448.65722656 C-92.59376577 451.85931528 -107.95519389 452.57875902 -123.734375 452.515625 C-124.68120148 452.51380219 -125.62802795 452.51197937 -126.60354614 452.51010132 C-140.43500077 452.46527506 -153.97639806 452.12704106 -167.546875 449.203125 C-168.3910498 449.02620117 -169.23522461 448.84927734 -170.10498047 448.66699219 C-199.13488213 442.41506246 -225.1908819 430.00652772 -246.546875 409.203125 C-247.17722656 408.64625 -247.80757812 408.089375 -248.45703125 407.515625 C-271.63433997 386.47523127 -282.56817659 350.43499845 -284.546875 320.203125 C-287.48704529 242.84205606 -259.53755375 163.37242017 -209.546875 104.203125 C-208.6688204 103.13839213 -207.79123677 102.07327074 -206.9140625 101.0078125 C-195.71239588 87.5319918 -183.4386574 74.91220797 -169.546875 64.203125 C-168.495451 63.35265919 -167.44607907 62.49965209 -166.3984375 61.64453125 C-120.27992925 24.25241419 -59.70047291 0.28218005 0 0 Z " fill="#FFFFFF" transform="translate(1084.546875,197.796875)"/>
<path d="M0 0 C1.48029442 -0.01052147 1.48029442 -0.01052147 2.99049377 -0.02125549 C6.1577719 -0.03866727 9.32486328 -0.04510747 12.4921875 -0.046875 C13.57198883 -0.04754974 14.65179016 -0.04822449 15.76431274 -0.04891968 C31.15572922 -0.03360541 46.22462439 0.15797546 61.3671875 3.203125 C62.24648926 3.37473145 63.12579102 3.54633789 64.03173828 3.72314453 C102.03886826 11.37379725 139.27537139 29.46933581 161.734375 62.1953125 C175.60439165 83.11528237 183.85732512 105.40637236 187.3671875 130.203125 C187.5528125 131.49089844 187.7384375 132.77867187 187.9296875 134.10546875 C188.72325878 141.62190607 188.611622 149.215228 188.6171875 156.765625 C188.61786224 157.58814758 188.61853699 158.41067017 188.61923218 159.25811768 C188.6012548 173.09800797 187.83277114 186.55794364 185.3671875 200.203125 C185.20621582 201.11529785 185.04524414 202.0274707 184.87939453 202.96728516 C177.75595423 242.01961349 162.51021715 280.61173707 141.3671875 314.203125 C140.71363281 315.24210937 140.06007813 316.28109375 139.38671875 317.3515625 C123.8360966 341.27066379 104.56562952 365.08532602 82.203125 382.9140625 C80.38535222 384.38130059 78.59540164 385.88411252 76.84375 387.4296875 C39.23041555 420.41029454 -10.66903577 441.0629089 -59.6328125 449.203125 C-60.88698975 449.42742187 -60.88698975 449.42742187 -62.16650391 449.65625 C-91.81393983 454.80171859 -126.09259491 455.19989072 -155.6328125 449.203125 C-156.64843262 448.99913086 -157.66405273 448.79513672 -158.71044922 448.58496094 C-190.71281323 441.93976702 -218.64561442 429.75950775 -242.6328125 407.203125 C-243.51839844 406.41421875 -243.51839844 406.41421875 -244.421875 405.609375 C-272.30490405 379.7085518 -281.45455082 339.374981 -282.8203125 302.875 C-284.44539262 232.65975084 -256.48261813 151.99296052 -207.79296875 100.50390625 C-205.94729826 98.53808362 -204.1851639 96.53439104 -202.42578125 94.4921875 C-192.51530272 83.12649946 -181.63576397 72.3439718 -169.6328125 63.203125 C-168.63378906 62.41035156 -167.63476562 61.61757813 -166.60546875 60.80078125 C-120.19887991 24.10521399 -59.55262624 0.28387039 0 0 Z M-85.79272461 137.99633789 C-121.18807065 174.72616781 -138.83791789 233.14849302 -138.6328125 283.203125 C-137.97846004 300.92545615 -134.15029428 320.62731049 -120.6328125 333.203125 C-104.47490948 346.80048601 -85.76477245 347.25521021 -65.6328125 346.203125 C-39.071551 343.59650443 -16.87472007 326.10663448 -0.13964844 306.44921875 C22.76398065 277.93344214 35.50395463 240.64907124 42.3671875 205.203125 C42.60050781 204.03265625 42.83382812 202.8621875 43.07421875 201.65625 C47.23425945 178.07270994 47.72733715 149.17907472 34.015625 128.4375 C24.88797689 116.06542721 14.60877063 109.14588607 -0.6328125 106.203125 C-34.1710037 101.53455386 -62.36434969 114.45080387 -85.79272461 137.99633789 Z " fill="#FFFFFF" transform="translate(2044.6328125,197.796875)"/>
<path d="M0 0 C46.86 0 93.72 0 142 0 C137.40562032 19.52611366 137.40562032 19.52611366 135.60009766 26.16577148 C135.285748 27.33523787 135.285748 27.33523787 134.96504784 28.52832985 C134.28390551 31.05993783 133.59901114 33.59051324 132.9140625 36.12109375 C132.41951391 37.95634975 131.92521771 39.79167379 131.43115234 41.62705994 C130.37972284 45.53106392 129.32667057 49.43462488 128.27227783 53.33782959 C126.59591458 59.54365038 124.92335648 65.75049278 123.25146484 71.95751953 C121.52629037 78.36179483 119.80094867 84.76602462 118.07437134 91.16992188 C114.41713503 104.73498455 110.76649644 118.30179717 107.125 131.87109375 C106.89341942 132.73400591 106.66183884 133.59691807 106.42324066 134.48597908 C103.92380937 143.80011937 101.42651912 153.11483246 98.93066406 162.42993164 C98.26328053 164.92053027 97.59587024 167.41112172 96.92842865 169.90170479 C96.48793168 171.54544808 96.04746619 173.18919981 95.60703278 174.83296013 C92.71722051 185.61688162 89.8149231 196.39735771 86.90139771 207.17489624 C85.35206088 212.90661002 83.8070244 218.6394803 82.26312065 224.37265968 C81.2325389 228.19850793 80.19972015 232.02371732 79.16094971 235.84735107 C70.53041927 264.73081455 70.53041927 264.73081455 67.5 294.5 C67.51353516 295.41869873 67.52707031 296.33739746 67.54101562 297.28393555 C67.86034806 307.77456303 70.04134028 316.33815827 77.53515625 324.02734375 C93.127687 336.50631052 115.8340509 335.66708549 134.64208984 333.72753906 C153.36774761 330.85168212 170.42361427 319.90906474 181.57910156 304.85302734 C182.73417513 303.24586746 183.86770574 301.62328911 185 300 C185.55300781 299.22398437 186.10601563 298.44796875 186.67578125 297.6484375 C194.02231325 286.44052076 198.32165902 272.91521156 202 260.125 C202.43420509 258.62451614 202.43420509 258.62451614 202.87718201 257.09371948 C207.89526331 239.56021097 212.51589492 221.91312777 217.21694946 204.29276276 C218.65427024 198.90799741 220.09481146 193.52409382 221.53515625 188.14013672 C223.59831296 180.42731653 225.66070892 172.71429387 227.72201347 165.00097847 C232.52883478 147.01473206 237.35138415 129.03271934 242.17770386 111.05169678 C243.42364399 106.40973611 244.66902854 101.7676266 245.91430664 97.12548828 C254.60096572 64.74802015 263.302366 32.37452654 272 0 C318.86 0 365.72 0 414 0 C413.33551717 4.6513798 412.64562637 8.73114426 411.44726562 13.20361328 C410.96627663 15.01053398 410.96627663 15.01053398 410.47557068 16.85395813 C410.11921053 18.17609784 409.76276736 19.49821517 409.40625 20.8203125 C409.02802574 22.23474688 408.65015207 23.64927505 408.27259827 25.06388855 C407.23811747 28.93557949 406.19849569 32.80587362 405.15794754 36.67593765 C404.04116326 40.83291697 402.92900813 44.99113495 401.81616211 49.14916992 C399.39068513 58.20783223 396.95886104 67.2647831 394.52557373 76.3213501 C392.99680152 82.01136078 391.46927269 87.70170482 389.94189453 93.39208984 C385.76158074 108.96476004 381.58053086 124.53722548 377.38647461 140.10620117 C376.33051123 144.02651509 375.27460866 147.94684538 374.21875 151.8671875 C373.95870745 152.83261538 373.69866489 153.79804325 373.43074226 154.79272652 C369.86908059 168.01846389 366.33155376 181.2504111 362.81378365 194.48788643 C361.40351403 199.79069519 359.98833686 205.09219649 358.57293606 210.39363766 C357.47646331 214.50237293 356.3832255 218.61190161 355.2986145 222.7237854 C340.42524981 279.08826629 320.90148036 333.07490817 280 376 C279.27425781 376.77859375 278.54851563 377.5571875 277.80078125 378.359375 C267.33272677 389.27246691 254.78070885 398.01411095 242 406 C241.39526855 406.37866211 240.79053711 406.75732422 240.16748047 407.14746094 C212.1553652 424.40525891 180.18433384 432.81611111 148 438 C146.3284082 438.27118652 146.3284082 438.27118652 144.62304688 438.54785156 C126.13975938 441.35664117 107.5282592 441.3064071 88.875 441.375 C87.65767181 441.3830365 86.44034363 441.391073 85.18612671 441.39935303 C38.84320493 441.6311086 -13.95123016 436.2946394 -48.9375 402.5 C-71.81437753 378.51941347 -78.00032727 346.55210818 -77.27734375 314.38671875 C-76.6887659 298.35346741 -74.33735703 282.65777044 -71.12109375 266.953125 C-70.97463787 266.23686258 -70.82818199 265.52060017 -70.67728806 264.78263283 C-66.60473505 245.06472074 -61.25719724 225.68002494 -55.96216202 206.26285934 C-54.52784376 200.9938147 -53.10564859 195.72149897 -51.68237305 190.44946289 C-49.31240437 181.67520387 -46.9365922 172.90254795 -44.55712891 164.13085938 C-41.1072527 151.40979525 -37.68046414 138.68258664 -34.26171875 125.953125 C-33.99068329 124.9439867 -33.71964783 123.9348484 -33.44039917 122.89513016 C-32.35948742 118.87035022 -31.27868043 114.84554218 -30.19810104 110.82067299 C-28.36006554 103.9748198 -26.51983115 97.1295608 -24.67822266 90.28466797 C-20.34248453 74.16867097 -16.00854521 58.05224397 -11.703619 41.92798424 C-11.14852287 39.84889925 -10.5931925 37.76987697 -10.03779602 35.69087219 C-8.40490891 29.57779388 -6.77418735 23.46415115 -5.14770508 17.34936523 C-4.59855005 15.29148256 -4.04932066 13.23361972 -3.5 11.17578125 C-3.25654343 10.25687103 -3.01308685 9.33796082 -2.76225281 8.39120483 C-2.54164688 7.56641632 -2.32104095 6.74162781 -2.09375 5.8918457 C-1.90490234 5.18195999 -1.71605469 4.47207428 -1.52148438 3.74067688 C-1 2 -1 2 0 0 Z " fill="#FFFFFF" transform="translate(2345,209)"/>
<path d="M0 0 C28.81578101 -0.04576345 57.63155769 -0.08109034 86.44736798 -0.10213066 C89.86017572 -0.10463165 93.27298338 -0.10722034 96.68579102 -0.10986328 C97.36513328 -0.1103879 98.04447554 -0.11091252 98.74440394 -0.11145304 C109.70069048 -0.12012245 120.65695574 -0.13587302 131.61322971 -0.15430559 C142.88068278 -0.1731016 154.14812534 -0.18398767 165.41559488 -0.18817699 C171.73368526 -0.19077095 178.05172758 -0.19681317 184.36980247 -0.21146011 C190.33282202 -0.2251702 196.29577432 -0.22919588 202.25880814 -0.22621536 C204.43178105 -0.22675958 206.60475654 -0.2306562 208.77771568 -0.23841095 C226.28545235 -0.29775623 243.76010635 0.45994396 261 3.75 C261.89533447 3.91846436 262.79066895 4.08692871 263.71313477 4.26049805 C279.26900364 7.31560483 293.92611297 11.67089394 308 19 C308.99386719 19.49371094 309.98773437 19.98742187 311.01171875 20.49609375 C326.88433709 28.66484712 339.56055449 41.33500184 348 57 C348.48210938 57.89332031 348.96421875 58.78664063 349.4609375 59.70703125 C365.36487442 91.85226132 357.90986992 130.13213434 347.18359375 162.578125 C331.45690482 208.5111949 300.35532341 247.50663247 257 270 C256.31808594 270.35658691 255.63617187 270.71317383 254.93359375 271.08056641 C206.49670473 296.06802235 153.27205969 297.21148279 100.04846191 297.06866455 C95.74325057 297.05825055 91.43803293 297.05382909 87.1328125 297.04882812 C78.75519161 297.03825122 70.3776005 297.02129064 62 297 C61.64307823 298.55146729 61.64307823 298.55146729 61.27894592 300.13427734 C58.91187073 310.35112062 56.34042129 320.49685803 53.62109375 330.625 C53.20454364 332.18394347 52.78821359 333.74294576 52.37208557 335.30200195 C51.28205345 339.38347466 50.18900243 343.46413269 49.09527588 347.5446167 C48.02190096 351.5513718 46.95155632 355.55893469 45.88085938 359.56640625 C39.60277639 383.04843872 33.29858466 406.52345717 27 430 C-19.86 430 -66.72 430 -115 430 C-114.2806401 424.96448071 -113.39956314 420.29115314 -112.08007812 415.41943359 C-111.88544291 414.68789063 -111.69080769 413.95634766 -111.49027443 413.20263672 C-110.84113635 410.76685179 -110.18621141 408.33266248 -109.53125 405.8984375 C-109.06320937 404.1471953 -108.59551615 402.39586023 -108.12814331 400.6444397 C-106.85686445 395.88475626 -105.58046163 391.12646037 -104.30309296 386.3684082 C-102.94742945 381.31537639 -101.59638266 376.26111007 -100.24462891 371.20703125 C-97.11694354 359.5173421 -93.98150579 347.82973965 -90.84376526 336.14274597 C-90.01809564 333.06740028 -89.19256481 329.99201737 -88.36706543 326.91662598 C-82.35940332 304.53628585 -76.34230458 282.15848938 -70.32102776 259.78180885 C-65.03577987 240.13979636 -59.76223195 220.49465473 -54.4927063 200.84841919 C-53.58785632 197.47499202 -52.68287981 194.10159879 -51.77790642 190.72820473 C-47.69532238 175.5097599 -43.6138402 160.29102016 -39.53469086 145.07165432 C-30.05444346 109.70078136 -20.56771428 74.33163965 -11.02960205 38.97631836 C-10.13980473 35.67790064 -9.25096626 32.37922694 -8.36297607 29.08032227 C-7.33415192 25.25851131 -6.30325623 21.43726546 -5.27066612 17.61647034 C-4.89312783 16.2181813 -4.51631492 14.81969619 -4.14026833 13.42100525 C-3.62894997 11.51971707 -3.11472946 9.61921008 -2.6003418 7.71875 C-2.31362106 6.65591797 -2.02690033 5.59308594 -1.73149109 4.49804688 C-1 2 -1 2 0 0 Z M115 101 C112.89791714 106.40365518 111.13172158 111.77216227 109.63989258 117.37207031 C109.42487595 118.16660614 109.20985931 118.96114197 108.98832703 119.77975464 C108.28636409 122.3781444 107.59019914 124.9780434 106.89453125 127.578125 C106.40577606 129.39562332 105.91681506 131.21306631 105.42765808 133.03045654 C104.40721064 136.82558836 103.38972969 140.6215001 102.37426758 144.41796875 C101.07234532 149.28418001 99.76226701 154.14815277 98.44989491 159.01155472 C97.44008454 162.7577723 96.43494715 166.50523148 95.43118858 170.25307465 C94.94988217 172.04764536 94.46703326 173.84180311 93.98261452 175.63553619 C93.30757309 178.1376011 92.63892844 180.64129033 91.97192383 183.14550781 C91.67041916 184.25522446 91.67041916 184.25522446 91.36282349 185.38735962 C90.47383539 188.75051345 90 191.48976555 90 195 C98.98084849 195.0934137 107.96152519 195.16412177 116.94275665 195.20724869 C121.11484658 195.22796606 125.28659984 195.25598643 129.45849609 195.30175781 C133.49804404 195.34579076 137.53727188 195.36925562 141.57704163 195.37950897 C143.10454842 195.38679892 144.63204127 195.40102799 146.15940857 195.42292023 C159.79045389 195.61020889 173.1560345 193.81170116 185.375 187.3125 C186.36512085 186.79550537 186.36512085 186.79550537 187.37524414 186.26806641 C202.44289839 178.08084681 211.15070253 164.68193647 216.30541992 148.69604492 C218.78612172 140.16195597 220.06949896 130.20499543 216.22265625 121.8671875 C208.1181737 109.4903739 195.9827458 105.84044517 182.30859375 102.796875 C173.38602139 101.04557806 164.49779934 100.86009114 155.4296875 100.90234375 C153.68632614 100.90446617 153.68632614 100.90446617 151.90774536 100.90663147 C148.23013634 100.91218658 144.55259033 100.92473059 140.875 100.9375 C138.36718839 100.94252081 135.85937581 100.94708269 133.3515625 100.95117188 C127.23435384 100.96214128 121.11718143 100.97883411 115 101 Z " fill="#FFFFFF" transform="translate(2834,209)"/>
<path d="M0 0 C44.55 0 89.1 0 135 0 C134.15676706 5.05939767 133.11773147 9.91196134 131.875 14.875 C131.65835693 15.74286133 131.44171387 16.61072266 131.21850586 17.50488281 C129.23337531 25.32337115 126.96155551 33.04639663 124.66210938 40.77709961 C122.24821489 48.96719227 120.15199235 57.2135915 118.12475586 65.5065918 C116.75630757 71.07185756 115.29769592 76.58132198 113.625 82.0625 C111.16066076 90.14141529 109.08611429 98.31724498 107 106.5 C104.62054234 115.83061303 102.13901898 125.09566715 99.34375 134.3125 C97.37954521 140.99079629 95.72012924 147.7556447 94 154.5 C91.76564828 163.26029599 89.49676321 171.99219766 86.86108398 180.64160156 C84.55733174 188.29461485 82.63825293 196.04897187 80.65600586 203.79003906 C78.87193647 210.72545793 77.00354905 217.62493192 75 224.5 C72.6804541 232.46292119 70.5580206 240.46563138 68.5 248.5 C66.22620094 257.37675266 63.83538114 266.20199083 61.27172852 274.99902344 C58.85073146 283.37341032 56.70104304 291.81366232 54.53955078 300.25805664 C52.75506412 307.19337833 50.8503623 314.07030071 48.77319336 320.92285156 C47.17821222 326.24251718 45.81912249 331.60591385 44.5 337 C43.01563551 343.06978502 41.43768576 349.08247541 39.625 355.0625 C37.40161588 362.40809958 35.46550098 369.81546462 33.5625 377.25 C31.26766808 386.21221557 28.85908282 395.12342672 26.26977539 404.00463867 C23.90185946 412.19332248 21.7830847 420.44286502 19.7109375 428.7109375 C17.11528482 438.92974491 14.04124497 448.86251677 11 459 C-33.55 459 -78.1 459 -124 459 C-122.87555934 450.00447475 -122.87555934 450.00447475 -122.01953125 447.0546875 C-121.82818604 446.38211914 -121.63684082 445.70955078 -121.43969727 445.01660156 C-121.23272217 444.30987305 -121.02574707 443.60314453 -120.8125 442.875 C-120.35872595 441.28403915 -119.90563133 439.69288439 -119.453125 438.1015625 C-119.21529297 437.27043945 -118.97746094 436.43931641 -118.73242188 435.58300781 C-117.47486769 431.14803339 -116.27043202 426.69869636 -115.0625 422.25 C-114.55345767 420.38018866 -114.04434251 418.51039715 -113.53515625 416.640625 C-113.28137207 415.70798828 -113.02758789 414.77535156 -112.76611328 413.81445312 C-111.51251869 409.20915088 -110.256138 404.60460902 -109 400 C-108.49998622 398.16667042 -107.99998623 396.33333709 -107.5 394.5 C-80.5 295.5 -80.5 295.5 -79.75024414 292.75097656 C-79.24937527 290.91440304 -78.74856162 289.07781445 -78.24780273 287.24121094 C-77.01154485 282.70732849 -75.77438351 278.17369681 -74.53515625 273.640625 C-71.83678582 263.76573748 -69.15767808 253.8859224 -66.5 244 C-63.60243753 233.22176545 -60.67700476 222.45142156 -57.73388672 211.68554688 C-56.48739655 207.12420559 -55.24386709 202.56205715 -54 198 C-53.50001377 196.16666291 -53.00001378 194.33332958 -52.5 192.5 C-52.12875 191.13875 -52.12875 191.13875 -51.75 189.75 C-41 150.33333333 -30.25 110.91666667 -19.5 71.5 C-19.12875 70.13862915 -19.12875 70.13862915 -18.75 68.74975586 C-18.25016528 66.91719124 -17.75016538 65.08467167 -17.25 63.25219727 C-15.9961102 58.65745851 -14.74513747 54.06196263 -13.5 49.46484375 C-10.77586215 39.42052671 -8.0037947 29.39384281 -5.09179688 19.40209961 C-3.22810436 12.96074499 -1.63002966 6.52011862 0 0 Z " fill="#FEFEFE" transform="translate(615,161)"/>
<path d="M0 0 C17.768422 -0.07027201 35.53680764 -0.12307691 53.30533886 -0.15543652 C61.55671539 -0.1708651 69.80800528 -0.19187737 78.05932617 -0.22631836 C85.25631867 -0.25634411 92.45324836 -0.27560409 99.65030175 -0.28226548 C103.45643763 -0.28615558 107.26239394 -0.29521279 111.06847191 -0.31719017 C114.66111419 -0.3377643 118.25350533 -0.34379226 121.84620094 -0.33932304 C123.77245945 -0.34052396 125.69869149 -0.3565554 127.62487793 -0.3732605 C142.31258902 -0.32188578 157.43601893 2.97063209 168.48046875 13.31640625 C179.67452213 25.71907208 181.76353718 39.45849687 181.17480469 55.5 C180.12734314 70.48045568 171.92614631 85.09002326 162 96 C161.19949219 96.89332031 160.39898437 97.78664063 159.57421875 98.70703125 C138.66741085 120.8527611 108.46787541 131.23727558 78.46871948 132.10176086 C74.54380022 132.13309106 70.62017213 132.12608903 66.6953125 132.1015625 C65.21298834 132.09654822 63.73066301 132.09187275 62.24833679 132.08750916 C46.09026695 132.02863339 29.93274692 131.84396537 13.77612305 131.62768555 C9.56735205 131.57152145 5.35852889 131.52173338 1.14966297 131.47328281 C-2.14897417 131.43433653 -5.44754829 131.39128035 -8.74611855 131.34705925 C-10.30053189 131.3268641 -11.85496482 131.30811727 -13.40941429 131.29092598 C-15.55972766 131.26671228 -17.70988857 131.23672141 -19.86010742 131.20532227 C-21.07437912 131.18977798 -22.28865082 131.1742337 -23.53971863 131.15821838 C-27.08087324 130.99630214 -30.50121687 130.55816265 -34 130 C-33.41350876 124.54354747 -32.45961725 119.36171485 -31.02563477 114.05981445 C-30.82697311 113.30853271 -30.62831146 112.55725098 -30.42362976 111.78320312 C-29.76789495 109.30853492 -29.10471892 106.83592804 -28.44140625 104.36328125 C-27.97310968 102.60258902 -27.50525903 100.84177814 -27.03782654 99.08085632 C-25.80185806 94.42988323 -24.55948706 89.78064322 -23.31585693 85.13171387 C-22.08991292 80.54398364 -20.87054196 75.95450787 -19.65039062 71.36523438 C-17.01767505 61.46923709 -14.37227665 51.57666614 -11.72013092 41.68585968 C-10.99069382 38.96529091 -10.26179754 36.24457757 -9.53289795 33.52386475 C-8.35902995 29.14388465 -7.18248652 24.76463139 -6.00379753 20.38594627 C-5.56424812 18.75210053 -5.12538148 17.11807093 -4.68722725 15.48385048 C-4.08645818 13.24411817 -3.48295675 11.00514066 -2.87866211 8.76635742 C-2.53854599 7.50240646 -2.19842987 6.23845551 -1.8480072 4.936203 C-1 2 -1 2 0 0 Z " fill="#FFFFFF" transform="translate(34,378)"/>
<path d="M0 0 C0.95166046 -0.00571014 1.90332092 -0.01142029 2.88381958 -0.01730347 C3.9367067 -0.01842133 4.98959381 -0.01953918 6.0743866 -0.02069092 C7.17691772 -0.02565582 8.27944885 -0.03062073 9.41539001 -0.03573608 C13.08582676 -0.05041293 16.75622017 -0.05717178 20.42668152 -0.06268311 C22.97483319 -0.06843366 25.52298484 -0.07419141 28.07113647 -0.07995605 C32.7429671 -0.08913645 37.41478469 -0.09542788 42.08662206 -0.09845281 C48.94067082 -0.1029154 55.79451835 -0.12037129 62.64850599 -0.1494534 C68.59704679 -0.17380777 74.5455384 -0.18140393 80.49413109 -0.18312836 C83.01573972 -0.18614481 85.53734771 -0.19413908 88.05892372 -0.20731354 C91.6032918 -0.22449707 95.14718049 -0.2224627 98.6915741 -0.21600342 C100.23750496 -0.22982559 100.23750496 -0.22982559 101.81466675 -0.243927 C116.78869155 -0.15906442 129.46987386 4.40946375 140.33683777 14.76544189 C149.46644055 24.36889949 153.25681934 35.84587979 153.06510925 49.05010986 C152.27128302 66.73444148 144.20831211 81.21790582 132.59465027 94.14044189 C131.71486511 95.12657471 131.71486511 95.12657471 130.81730652 96.13262939 C111.5321637 116.55219237 81.74565534 124.65440077 54.59465027 126.14044189 C48.84773453 126.22129423 43.10668624 126.14393714 37.36027527 126.05450439 C35.71182258 126.03265808 34.06336454 126.01121229 32.41490173 125.99014282 C28.97573227 125.94493487 25.53665012 125.89577474 22.09757996 125.84356689 C17.73663032 125.77755643 13.37562095 125.72011544 9.01451492 125.66553688 C5.61338403 125.62222193 2.21231719 125.57492418 -1.18874359 125.52643967 C-2.79433519 125.50388177 -4.39994147 125.48234157 -6.00556183 125.46193314 C-16.50030381 125.32512787 -26.93628637 124.89188291 -37.40534973 124.14044189 C-34.48837553 111.39186989 -31.25564803 98.74227585 -27.90534973 86.10137939 C-27.38236915 84.12141967 -26.85958677 82.14140759 -26.33699036 80.16134644 C-24.97280524 74.99480383 -23.60587719 69.82899092 -22.23835754 64.66333008 C-20.85476411 59.4348108 -19.47397245 54.20555175 -18.09284973 48.97637939 C-12.94575923 29.49368396 -12.94575923 29.49368396 -10.66316223 20.89306641 C-9.83782286 17.78144496 -9.02048096 14.66790105 -8.21003723 11.55236816 C-7.93335205 10.49570922 -7.93335205 10.49570922 -7.65107727 9.41770363 C-7.16008024 7.54205083 -6.67223838 5.66557288 -6.18464661 3.78903198 C-4.97003516 -0.33905829 -4.07537854 0.01457879 0 0 Z " fill="#FFFFFF" transform="translate(105.40534973144531,131.85955810546875)"/>
<path d="M0 0 C44.55 0 89.1 0 135 0 C132.74740316 12.38928259 132.74740316 12.38928259 131.44921875 17.3828125 C131.02358643 19.02624634 131.02358643 19.02624634 130.58935547 20.70288086 C130.14293701 22.39682983 130.14293701 22.39682983 129.6875 24.125 C129.37699707 25.31424072 129.06649414 26.50348145 128.74658203 27.72875977 C126.87796119 34.83231659 124.90401676 41.89130977 122.77416992 48.92041016 C120.9292328 55.07121078 119.40526545 61.29006019 117.88330078 67.52734375 C116.30855839 73.92092236 114.53075544 80.23489883 112.61132812 86.53320312 C111.55084252 90.02759013 110.71888903 93.40555485 110 97 C65.12 97 20.24 97 -26 97 C-24.62823216 90.82704474 -23.22164009 84.69295555 -21.6875 78.5625 C-21.3615686 77.25998291 -21.3615686 77.25998291 -21.02905273 75.93115234 C-19.03948974 68.04603025 -16.87103098 60.21719529 -14.66796875 52.38964844 C-13.44527554 48.01548134 -12.25514905 43.63243542 -11.0625 39.25 C-10.68992065 37.88319092 -10.68992065 37.88319092 -10.30981445 36.48876953 C-8.98708858 31.63437835 -7.66911906 26.77872995 -6.35546875 21.921875 C-6.08661865 20.93026367 -5.81776855 19.93865234 -5.54077148 18.91699219 C-5.02711056 17.02220344 -4.51482459 15.12704121 -4.00415039 13.23144531 C-3.77074951 12.37131836 -3.53734863 11.51119141 -3.296875 10.625 C-3.09416992 9.87476563 -2.89146484 9.12453125 -2.68261719 8.3515625 C-1.8674959 5.5435338 -0.92463225 2.77389674 0 0 Z " fill="#F6B412" transform="translate(650,31)"/>
<path d="M0 0 C8.47553862 6.77739851 14.76849355 17.07282377 16 28 C16.97372388 41.72065473 13.76207594 52.80330048 5.3125 63.6875 C-1.87471644 71.6507141 -13.11053327 76.29226843 -23.65625 77.23828125 C-35.43500946 77.54569393 -45.80919811 74.45736971 -55 67 C-55.62519531 66.49855469 -56.25039062 65.99710937 -56.89453125 65.48046875 C-64.56613511 58.61112412 -69.28624793 48.23044629 -70 38 C-70.24451566 25.04067023 -66.82404417 13.67167403 -58 4 C-42.56386384 -12.00643675 -17.59348851 -13.24792702 0 0 Z M-54 14 C-59.54317912 22.68346638 -60.99822506 30.76819319 -60 41 C-57.25154576 50.92760627 -52.25793988 58.76988075 -43.25390625 63.9296875 C-33.92708201 68.35871669 -24.67907893 69.33145488 -14.85546875 65.90234375 C-5.49510226 61.67546127 1.56099344 55.13029948 5.30859375 45.43359375 C8.07901599 35.68233354 7.09752763 27.23720101 3 18 C-2.0834099 9.01661954 -10.14784167 3.73190338 -20 1 C-34.35739521 -0.46295733 -44.43212221 3.09194075 -54 14 Z " fill="#FFFFFF" transform="translate(3289,197)"/>
<path d="M0 0 C29.44827586 0 29.44827586 0 34 4 C36.88868756 8.3828363 37.56796579 11.79364695 37 17 C35.03955705 21.57436689 31.84221403 24.01161131 28 27 C28.36351563 27.44988281 28.72703125 27.89976562 29.1015625 28.36328125 C33.44662544 33.92273357 36.72101153 39.75430768 40 46 C35.71 46 31.42 46 27 46 C26.46890625 45.02417969 25.9378125 44.04835937 25.390625 43.04296875 C24.67754842 41.75755439 23.96398083 40.47241232 23.25 39.1875 C22.90195313 38.54490234 22.55390625 37.90230469 22.1953125 37.24023438 C20.22281744 33.71531265 18.59210277 30.95372002 15 29 C13.35 28.67 11.7 28.34 10 28 C10 33.94 10 39.88 10 46 C6.7 46 3.4 46 0 46 C0 30.82 0 15.64 0 0 Z M10 9 C10 12.63 10 16.26 10 20 C15.51637599 20.16716291 19.83481717 20.1952027 25 18 C25.33 17.67 25.66 17.34 26 17 C25.74751373 13.48254713 25.74751373 13.48254713 25 10 C22.11584117 8.55792059 19.58278472 8.90605113 16.375 8.9375 C14.59222656 8.95103516 14.59222656 8.95103516 12.7734375 8.96484375 C11.40058594 8.98224609 11.40058594 8.98224609 10 9 Z " fill="#FFFFFF" transform="translate(3243,208)"/>
</svg>
