<?xml version="1.0" encoding="UTF-8"?>
<svg version="1.1" xmlns="http://www.w3.org/2000/svg" width="775" height="151">
<path d="M0 0 C36.96 0 73.92 0 112 0 C107.38321955 19.62131691 107.38321955 19.62131691 104.75439453 29.20727539 C104.56121643 29.91320831 104.36803833 30.61914124 104.16900635 31.34646606 C103.96885925 32.07775726 103.76871216 32.80904846 103.5625 33.5625 C103.13105003 35.1476241 102.69990795 36.73283202 102.26904297 38.31811523 C101.34056861 41.73324181 100.41068629 45.14798092 99.47998047 48.5625 C97.93972795 54.21697804 96.40856818 59.8738991 94.87890625 65.53125 C92.42432549 74.60901893 89.96616385 83.6858081 87.50460815 92.76168823 C86.09567113 97.9568943 84.68793424 103.15241983 83.28271484 108.34863281 C81.89273665 113.48833285 80.49986168 118.62723958 79.10491943 123.76559448 C78.58079983 125.69819216 78.05771161 127.63106987 77.53570557 129.5642395 C76.81434362 132.23499554 76.08926556 134.9047161 75.36328125 137.57421875 C75.04698006 138.7504631 75.04698006 138.7504631 74.72428894 139.95046997 C74.52563736 140.67797455 74.32698578 141.40547913 74.12231445 142.1550293 C73.95278763 142.78080368 73.7832608 143.40657806 73.6085968 144.05131531 C72.87105035 146.41288784 71.91884482 148.70288795 71 151 C33.05 151 -4.9 151 -44 151 C-44 150.34 -44 149.68 -44 149 C-43.15179688 148.91363281 -42.30359375 148.82726562 -41.4296875 148.73828125 C-23.7386888 146.61924954 -8.27375125 140.36351418 3.2890625 126.3125 C11.47763036 115.24484663 15.3505809 104.91453747 14 91 C13.27301265 88.05942938 12.30788675 85.76668351 11 83 C10.690625 82.21625 10.38125 81.4325 10.0625 80.625 C8.67417825 78.50168439 7.29186625 78.06494845 5 77 C4.27941406 76.65839844 3.55882812 76.31679687 2.81640625 75.96484375 C-1.092583 74.18310341 -4.69577623 72.55538371 -9 72 C-9 71.34 -9 70.68 -9 70 C-8.29875 69.78085938 -7.5975 69.56171875 -6.875 69.3359375 C0.39218711 66.9069592 6.28459683 63.92484992 11.59375 58.31640625 C13 57 13 57 15 57 C15.26941406 56.4328125 15.53882813 55.865625 15.81640625 55.28125 C17.04969984 52.90420888 18.47063011 50.73949601 19.9375 48.5 C25.26772162 39.60323303 27.27803671 30.19617812 25 20 C23.04751372 13.91035359 19.57139924 9.2109608 14 6 C10.5936125 4.77740047 7.19788361 3.7689265 3.6953125 2.859375 C2.80585937 2.57578125 1.91640625 2.2921875 1 2 C0.505 1.01 0.505 1.01 0 0 Z " fill="#253781" transform="translate(80,0)"/>
<path d="M0 0 C1.25159912 0.00523682 2.50319824 0.01047363 3.79272461 0.01586914 C4.78942421 0.01799156 4.78942421 0.01799156 5.80625916 0.02015686 C7.93590735 0.02577021 10.06545175 0.03832485 12.19506836 0.05102539 C13.63582205 0.05603868 15.07657739 0.06060188 16.51733398 0.06469727 C20.05577938 0.07574394 23.59416375 0.09301747 27.13256836 0.11352539 C27.57084961 1.22083008 28.00913086 2.32813477 28.46069336 3.46899414 C32.48149494 13.5934547 36.56325915 23.69336614 40.70080566 33.7706604 C41.2384526 35.08209508 41.7743435 36.39425105 42.30847168 37.7071228 C43.06526788 39.56593957 43.82924489 41.42182782 44.59350586 43.27758789 C45.25552002 44.89334717 45.25552002 44.89334717 45.9309082 46.54174805 C46.99758263 49.20606886 46.99758263 49.20606886 49.13256836 51.11352539 C49.45008057 49.88835205 49.76759277 48.66317871 50.09472656 47.40087891 C51.2825226 42.82096261 52.47440769 38.24211848 53.66748047 33.66357422 C54.18160388 31.68827493 54.69464334 29.71269316 55.20654297 27.73681641 C55.94590516 24.88375664 56.68926272 22.03176236 57.43334961 19.17993164 C57.65847733 18.30768448 57.88360504 17.43543732 58.11555481 16.53675842 C58.33555649 15.69656662 58.55555817 14.85637482 58.78222656 13.99072266 C58.97097855 13.26458267 59.15973053 12.53844269 59.35420227 11.79029846 C60.49647776 7.86205401 61.83889538 3.99454432 63.13256836 0.11352539 C73.03256836 0.11352539 82.93256836 0.11352539 93.13256836 0.11352539 C92.49306549 5.22954832 91.905194 9.49021715 90.58544922 14.34472656 C90.2709935 15.51182663 89.95653778 16.6789267 89.6325531 17.88139343 C89.12015831 19.75006828 89.12015831 19.75006828 88.59741211 21.65649414 C88.23640703 22.98793922 87.87586737 24.31951056 87.51576233 25.65119934 C86.56522821 29.16108727 85.60811602 32.66914875 84.6496582 36.17687988 C83.70552439 39.6370468 82.7680443 43.09901429 81.82983398 46.56079102 C80.16432683 52.7016712 78.49048408 58.84023534 76.81078148 64.97724724 C75.66941498 69.14765449 74.53199358 73.31911187 73.39744091 77.49137783 C72.65626866 80.21436251 71.91220444 82.93655079 71.16736031 85.6585331 C70.64617674 87.56629262 70.1282256 89.47493427 69.6103363 91.3835907 C69.29871048 92.51948135 68.98708466 93.65537201 68.66601562 94.82568359 C68.39298111 95.82654495 68.11994659 96.82740631 67.83863831 97.8585968 C67.13256836 100.11352539 67.13256836 100.11352539 66.13256836 101.11352539 C63.91401572 101.20136081 61.6926834 101.22047148 59.47241211 101.21118164 C58.47571251 101.20905922 58.47571251 101.20905922 57.45887756 101.20689392 C55.32922937 101.20128057 53.19968496 101.18872593 51.07006836 101.17602539 C49.62931467 101.1710121 48.18855933 101.1664489 46.74780273 101.16235352 C43.20935734 101.15130684 39.67097297 101.13403331 36.13256836 101.11352539 C32.50262055 93.30516246 29.12299321 85.40551135 25.84814453 77.44287109 C25.06926426 75.54907028 24.28769156 73.65639892 23.50561523 71.76391602 C20.67131619 64.8975991 17.87112695 58.01862677 15.13256836 51.11352539 C13.73535114 53.75491151 12.7072924 56.26181321 11.92749023 59.14428711 C11.71386841 59.92544891 11.50024658 60.70661072 11.28015137 61.51144409 C11.05613647 62.3469278 10.83212158 63.1824115 10.60131836 64.04321289 C10.36473511 64.91116486 10.12815186 65.77911682 9.88439941 66.67337036 C9.12980994 69.44402551 8.38087858 72.21616835 7.63256836 74.98852539 C6.88339114 77.7534952 6.13299313 80.51812325 5.3807373 83.28225708 C4.91349595 85.00020241 4.44815128 86.71866506 3.98498535 88.43771362 C3.77136353 89.22517975 3.5577417 90.01264587 3.33764648 90.82397461 C3.1527063 91.50918182 2.96776611 92.19438904 2.77722168 92.90036011 C1.97288016 95.66175242 1.04208762 98.38496762 0.13256836 101.11352539 C-9.76743164 101.11352539 -19.66743164 101.11352539 -29.86743164 101.11352539 C-29.24328028 96.74446585 -28.66290874 92.94374377 -27.53564453 88.76538086 C-27.26735336 87.76295853 -26.99906219 86.76053619 -26.72264099 85.72773743 C-26.28577721 84.12046028 -26.28577721 84.12046028 -25.84008789 82.48071289 C-25.38286095 80.77911263 -25.38286095 80.77911263 -24.91639709 79.0431366 C-23.92491245 75.35717412 -22.92758966 71.67282129 -21.92993164 67.98852539 C-21.24781572 65.4592314 -20.56601376 62.92985272 -19.88452148 60.40039062 C-18.52268579 55.34798263 -17.15852647 50.29621024 -15.79272461 45.24487305 C-14.07962949 38.90560428 -12.379352 32.56298353 -10.68383789 26.21899414 C-9.9996541 23.66479009 -9.31503042 21.11070463 -8.63009644 18.55670166 C-8.20601758 16.97343332 -7.78293716 15.38989721 -7.36087036 13.80609131 C-6.78549268 11.64859042 -6.20595642 9.49225169 -5.62524414 7.33618164 C-5.30700684 6.14774658 -4.98876953 4.95931152 -4.66088867 3.73486328 C-3.57319789 0.1414676 -3.57319789 0.1414676 0 0 Z " fill="#243681" transform="translate(459.867431640625,47.886474609375)"/>
<path d="M0 0 C1.65563965 0.00241699 1.65563965 0.00241699 3.34472656 0.00488281 C13.71265787 0.16081454 22.7305921 1.22109312 30.75 8.375 C36.24256357 14.87479585 35.12322704 23.41282305 34.75 31.375 C24.39305688 32.13714036 14.1364793 32.50930792 3.75 32.375 C3.68683594 31.76011719 3.62367188 31.14523438 3.55859375 30.51171875 C3.17383131 27.97228662 2.70123944 25.76366792 1.75 23.375 C-1.96637858 20.84786257 -4.96714795 20.12861643 -9.375 20.4375 C-13.45465432 21.42451314 -15.46923671 22.2466413 -18.25 25.375 C-18.66870553 28.04428121 -18.66870553 28.04428121 -18.25 30.375 C-12.60646983 32.98445718 -6.93401646 34.64415322 -0.9375 36.25 C10.40247509 39.42096768 19.85507625 42.20347983 26.75 52.375 C30.40539574 60.16258222 28.63929141 67.29238694 26.078125 75.15625 C24.08095586 79.99644816 21.27667442 83.55506268 17.75 87.375 C17.23824219 87.98859375 16.72648438 88.6021875 16.19921875 89.234375 C7.57641419 98.90560989 -5.25687312 103.7216172 -17.93847656 104.55078125 C-46.56611352 105.8661305 -46.56611352 105.8661305 -57.875 97.3125 C-63.59058165 91.56012276 -65.44706284 84.30868147 -65.5625 76.375 C-65.47880861 73.34449062 -65.21655978 71.27467935 -64.25 68.375 C-54.02 67.715 -43.79 67.055 -33.25 66.375 C-32.755 71.325 -32.755 71.325 -32.25 76.375 C-30.19745172 80.69622673 -30.19745172 80.69622673 -26.25 82.375 C-20.07841882 83.09284252 -14.4797632 83.03583424 -9.25 79.375 C-6.92353992 76.8880944 -5.66133923 74.76854863 -5.25 71.375 C-5.55798014 69.70346265 -5.88882544 68.03585575 -6.25 66.375 C-7.56227342 65.97841614 -8.87484676 65.58282485 -10.1875 65.1875 C-11.095 64.91164063 -12.0025 64.63578125 -12.9375 64.3515625 C-15.39099593 63.62824412 -17.84345796 62.93897537 -20.3125 62.2734375 C-28.95170785 59.90383733 -36.59328514 57.18731971 -44.25 52.375 C-44.25 51.715 -44.25 51.055 -44.25 50.375 C-45.735 49.88 -45.735 49.88 -47.25 49.375 C-51.14250047 43.38653775 -51.67591538 37.35640768 -50.6875 30.4375 C-47.45518071 19.78985999 -40.03402058 11.00139953 -30.25390625 5.7734375 C-20.21824707 1.40121401 -10.89928135 -0.01648908 0 0 Z " fill="#243681" transform="translate(714.25,46.625)"/>
<path d="M0 0 C1.66332653 0.04014647 3.32674537 0.07664526 4.99023438 0.109375 C9.05834831 0.19053438 13.12173841 0.34212313 17.1875 0.5 C18.80408561 12.06787604 20.11665994 23.65554547 21.3515625 35.26953125 C21.55034667 37.12661712 21.74927306 38.98368777 21.94833374 40.84074402 C22.36129734 44.69716796 22.77296346 48.55372731 23.18359375 52.41040039 C23.71055815 57.3592254 24.24022401 62.30775674 24.77076149 67.25619984 C25.17993332 71.07438791 25.58802005 74.89269131 25.99573898 78.71103477 C26.19084717 80.53757225 26.38622204 82.36408126 26.58186722 84.19056129 C26.8533275 86.72694544 27.12340241 89.26347316 27.39306641 91.80004883 C27.51458824 92.93210754 27.51458824 92.93210754 27.63856506 94.08703613 C28.1875 99.27108432 28.1875 99.27108432 28.1875 101.5 C16.9675 101.5 5.7475 101.5 -5.8125 101.5 C-6.3075 94.075 -6.3075 94.075 -6.8125 86.5 C-18.0325 86.17 -29.2525 85.84 -40.8125 85.5 C-41.4725 87.15 -42.1325 88.8 -42.8125 90.5 C-43.79929135 92.26941898 -44.82085775 94.01985989 -45.875 95.75 C-46.40222656 96.62140625 -46.92945313 97.4928125 -47.47265625 98.390625 C-48.8125 100.5 -48.8125 100.5 -49.8125 101.5 C-52.18588639 101.65971977 -54.53368272 101.7592433 -56.91015625 101.81640625 C-57.97344398 101.8475779 -57.97344398 101.8475779 -59.05821228 101.87937927 C-61.33037305 101.94494598 -63.60265264 102.0037923 -65.875 102.0625 C-67.41212183 102.10567849 -68.9492315 102.14929255 -70.48632812 102.19335938 C-74.2615959 102.30063449 -78.0369836 102.40188137 -81.8125 102.5 C-81.12357963 98.61746735 -80.26055496 96.34765869 -77.875 93.1875 C-74.83077432 88.99323351 -72.02788024 84.72159935 -69.3125 80.3125 C-65.20108456 73.66428774 -60.97038326 67.10146072 -56.6875 60.5625 C-51.23805251 52.24192052 -45.84789851 43.88620381 -40.5 35.5 C-35.39664646 27.49961846 -30.23961031 19.54579554 -24.92578125 11.68359375 C-22.81130258 8.78419403 -22.81130258 8.78419403 -22.0612793 6.34228516 C-18.38214591 -2.65556304 -8.16697256 -0.34065877 0 0 Z M-8.8125 29.5 C-12.69839921 35.33517764 -15.97199829 41.57705635 -19.2890625 47.74609375 C-21.31327659 51.40525 -23.49749769 54.95672706 -25.7109375 58.50390625 C-26.97355598 60.41186339 -26.97355598 60.41186339 -26.8125 62.5 C-20.2125 62.5 -13.6125 62.5 -6.8125 62.5 C-7.1425 51.61 -7.4725 40.72 -7.8125 29.5 C-8.1425 29.5 -8.4725 29.5 -8.8125 29.5 Z " fill="#243681" transform="translate(338.8125,47.5)"/>
<path d="M0 0 C1.65356255 -0.01441132 1.65356255 -0.01441132 3.3405304 -0.02911377 C4.54452988 -0.03336365 5.74852936 -0.03761353 6.98901367 -0.04199219 C8.84196297 -0.0505423 8.84196297 -0.0505423 10.73234558 -0.05926514 C13.35952434 -0.06873934 15.98658827 -0.075622 18.61376953 -0.07910156 C22.60164658 -0.08559883 26.58914848 -0.11970459 30.5769043 -0.15136719 C33.1309377 -0.1579044 35.68497479 -0.16315204 38.23901367 -0.16699219 C40.01161308 -0.18551239 40.01161308 -0.18551239 41.82002258 -0.20440674 C50.33949986 -0.18192064 60.40072285 0.05584146 67.40698242 5.53613281 C71.92732839 10.4041977 73.8198424 14.44541812 73.86401367 21.10644531 C72.93509796 35.37318849 68.41031563 45.25443843 57.90698242 54.97363281 C46.42421542 64.53154292 32.66297317 65.3607956 18.28198242 65.22363281 C17.36868164 65.21912109 16.45538086 65.21460937 15.5144043 65.20996094 C13.29102504 65.19832021 11.06779121 65.18197132 8.84448242 65.16113281 C8.69100342 66.12273315 8.69100342 66.12273315 8.53442383 67.10375977 C7.25055464 74.67642339 5.34473129 81.97337823 3.21948242 89.34863281 C2.10573242 93.24675781 0.99198242 97.14488281 -0.15551758 101.16113281 C-10.71551758 101.16113281 -21.27551758 101.16113281 -32.15551758 101.16113281 C-31.46771986 95.65875107 -30.75168782 91.1954051 -29.25708008 85.98144531 C-29.06633911 85.30754761 -28.87559814 84.6336499 -28.67907715 83.93933105 C-28.2664962 82.4822728 -27.8515259 81.02588937 -27.43438721 79.57012939 C-26.29609159 75.59401063 -25.17821775 71.61218224 -24.06176758 67.62988281 C-23.70853928 66.37070541 -23.70853928 66.37070541 -23.34817505 65.08609009 C-20.0481247 53.26581364 -16.98809857 41.38152556 -13.91186523 29.50146484 C-6.2744263 0.04397712 -6.2744263 0.04397712 0 0 Z M20.84448242 22.16113281 C17.87448242 32.55613281 17.87448242 32.55613281 14.84448242 43.16113281 C25.75571594 43.61521159 25.75571594 43.61521159 35.84448242 40.16113281 C39.10361163 36.73486877 40.75053734 34.45287767 41.09448242 29.72363281 C41.15910996 26.26822894 41.15910996 26.26822894 39.53198242 24.28613281 C34.19761029 20.72988472 26.92620239 22.10533722 20.84448242 22.16113281 Z " fill="#243681" transform="translate(210.155517578125,47.8388671875)"/>
<path d="M0 0 C1.32708733 0.00539291 1.32708733 0.00539291 2.6809845 0.01089478 C4.07108734 0.01067574 4.07108734 0.01067574 5.48927307 0.01045227 C8.56809285 0.01115178 11.64685295 0.01894595 14.72566223 0.02676392 C16.85415616 0.02862796 18.98265051 0.03005193 21.11114502 0.03105164 C26.72537919 0.03487789 32.33958766 0.04470909 37.95381165 0.05575562 C43.67788851 0.06596743 49.40196951 0.07054876 55.12605286 0.07559204 C66.36629855 0.08633126 77.60652513 0.10340896 88.84675598 0.12442017 C88.24570304 2.58355048 87.64096796 5.04168511 87.03425598 7.49942017 C86.86861145 8.1787561 86.70296692 8.85809204 86.53230286 9.55801392 C85.14592287 15.1558501 83.50971288 20.58123051 81.84675598 26.12442017 C71.28675598 26.12442017 60.72675598 26.12442017 49.84675598 26.12442017 C49.18675598 29.75442017 48.52675598 33.38442017 47.84675598 37.12442017 C46.92000599 40.82408349 45.96386214 44.49687713 44.94831848 48.17129517 C44.67208649 49.1855658 44.39585449 50.19983643 44.11125183 51.24484253 C43.23575703 54.45590537 42.35395442 57.66519336 41.47175598 60.87442017 C40.6003349 64.06188484 39.73020866 67.24970118 38.86012268 70.43753052 C38.29873131 72.49242869 37.73629031 74.54704043 37.17274475 76.60134888 C35.95448307 81.04487263 34.74383893 85.48954924 33.57624817 89.94668579 C33.39041168 90.65512634 33.2045752 91.36356689 33.0131073 92.09347534 C32.53436087 93.92749928 32.06022538 95.76272517 31.58650208 97.59805298 C30.84675598 100.12442017 30.84675598 100.12442017 29.84675598 101.12442017 C27.47336959 101.28413994 25.12557326 101.38366346 22.74909973 101.44082642 C21.685812 101.47199806 21.685812 101.47199806 20.6010437 101.50379944 C18.32888293 101.56936614 16.05660334 101.62821247 13.78425598 101.68692017 C12.24713415 101.73009865 10.71002448 101.77371272 9.17292786 101.81777954 C5.39766008 101.92505465 1.62227239 102.02630154 -2.15324402 102.12442017 C-0.73162149 94.39264335 1.16903229 86.8364781 3.21784973 79.24942017 C3.70234337 77.44175171 3.70234337 77.44175171 4.19662476 75.5975647 C5.04963371 72.41813842 5.90552731 69.23950697 6.76264954 66.06118774 C7.62782119 62.84873434 8.48780646 59.63489516 9.34870911 56.42129517 C10.0131299 53.9472582 10.677834 51.47329729 11.34284973 48.99942017 C11.80237282 47.2864978 11.80237282 47.2864978 12.2711792 45.53897095 C12.5648085 44.45084106 12.85843781 43.36271118 13.16096497 42.24160767 C13.41474411 41.29914185 13.66852325 40.35667603 13.92999268 39.38565063 C15.17733191 34.94845217 16.52231645 30.53921861 17.84675598 26.12442017 C7.61675598 26.12442017 -2.61324402 26.12442017 -13.15324402 26.12442017 C-11.92652073 19.9908037 -10.69967959 14.07554628 -9.09074402 8.06192017 C-8.83067566 7.06901978 -8.83067566 7.06901978 -8.56535339 6.05606079 C-6.92398864 -0.07547422 -6.36460285 0.01092667 0 0 Z " fill="#253781" transform="translate(572.1532440185547,47.875579833984375)"/>
<path d="M0 0 C1.29349365 0.00523682 2.5869873 0.01047363 3.91967773 0.01586914 C4.9496714 0.01799156 4.9496714 0.01799156 6.00047302 0.02015686 C8.20144949 0.0257706 10.40232557 0.03832532 12.60327148 0.05102539 C14.09220231 0.05603863 15.58113473 0.06060184 17.07006836 0.06469727 C20.72700223 0.07574446 24.38387707 0.09301826 28.04077148 0.11352539 C25.42412629 10.92140771 22.53792215 21.63176596 19.50341797 32.33007812 C17.67357152 38.78427513 17.67357152 38.78427513 15.98999023 45.27758789 C14.89476931 49.70354239 13.69055933 54.0935128 12.47827148 58.48852539 C10.50242753 65.67393282 8.57173167 72.87006516 6.68139648 80.07836914 C6.47889786 80.84924866 6.27639923 81.62012817 6.06776428 82.41436768 C5.24963689 85.52943024 4.43163347 88.64450179 3.62057495 91.76141357 C3.04872481 93.95898923 2.47282293 96.15546876 1.89624023 98.35180664 C1.72356628 99.02058334 1.55089233 99.68936005 1.37298584 100.37840271 C0.15430903 104.99998785 0.15430903 104.99998785 -0.95922852 106.11352539 C-3.25074269 106.20143514 -5.54495376 106.22046577 -7.83813477 106.21118164 C-8.86812843 106.20905922 -8.86812843 106.20905922 -9.91893005 106.20689392 C-12.11990653 106.20128018 -14.3207826 106.18872546 -16.52172852 106.17602539 C-18.01065934 106.17101216 -19.49959176 106.16644894 -20.98852539 106.16235352 C-24.64545926 106.15130632 -28.3023341 106.13403252 -31.95922852 106.11352539 C-31.28529274 101.85144723 -30.35093984 97.90904075 -29.02172852 93.80102539 C-27.85093896 90.08723056 -26.74191493 86.42824024 -25.95922852 82.61352539 C-24.95043023 77.71364802 -23.39768122 73.00625752 -21.89672852 68.23852539 C-21.13425708 65.69695394 -20.49360504 63.20906851 -19.95922852 60.61352539 C-18.94489857 55.69583647 -17.40218449 50.96325402 -15.90063477 46.17602539 C-14.77526925 42.51508529 -13.83799655 38.83950185 -12.95922852 35.11352539 C-11.18796383 27.70641854 -9.16339085 20.4435689 -6.87329102 13.17993164 C-6.05014322 10.41851701 -5.37000393 7.68077753 -4.77172852 4.86352539 C-3.74912751 0.14382842 -3.74912751 0.14382842 0 0 Z " fill="#FCFCFD" transform="translate(144.959228515625,37.886474609375)"/>
<path d="M0 0 C10.56 0 21.12 0 32 0 C30.87506506 10.12441448 30.87506506 10.12441448 29.45288086 15.23706055 C29.13842514 16.38083664 28.82396942 17.52461273 28.49998474 18.70304871 C27.98758995 20.52646538 27.98758995 20.52646538 27.46484375 22.38671875 C27.1036527 23.69186478 26.74311785 24.99719255 26.38319397 26.3026886 C25.4338007 29.74019509 24.47645994 33.17543492 23.51708984 36.61016846 C22.01091485 42.00851154 20.51776448 47.41048495 19.02229691 52.81180191 C18.4660535 54.81985152 17.90886381 56.82763706 17.35165405 58.8354187 C13.46352712 72.86290007 9.73035293 86.92966767 6 101 C-4.89 101 -15.78 101 -27 101 C-20.82904393 77.23938963 -14.55351003 53.51200054 -8.06152344 29.83691406 C-7.81991989 28.95567368 -7.57831635 28.07443329 -7.32939148 27.16648865 C-6.88750396 25.5558473 -6.44504652 23.9453621 -6.00178528 22.33509827 C-3.95966011 14.90052163 -1.9867977 7.45049137 0 0 Z " fill="#253781" transform="translate(403,48)"/>
<path d="M0 0 C4.57149757 -0.07457894 9.14263509 -0.12880276 13.71459961 -0.16479492 C15.2673968 -0.17981105 16.82015209 -0.20023028 18.37280273 -0.22631836 C20.61452624 -0.26302073 22.85568539 -0.27979787 25.09765625 -0.29296875 C25.78336197 -0.30845261 26.46906769 -0.32393646 27.17555237 -0.33988953 C32.24352148 -0.34162906 35.57687767 0.71091592 40 3 C43.01177602 6.40039228 43.49360831 9.50146789 43.2734375 14.0234375 C42.44539466 20.00900431 38.83413575 23.44548591 34.62109375 27.38671875 C26.67954221 32.27473781 18.20794976 32.42178156 9.125 32.25 C8.01125 32.24484375 6.8975 32.2396875 5.75 32.234375 C-3.09553593 32.14911682 -3.09553593 32.14911682 -7 31 C-6.34664916 24.11914052 -4.73500725 17.66453965 -2.9375 11 C-2.65583984 9.93910156 -2.37417969 8.87820312 -2.08398438 7.78515625 C-1.39396867 5.18882599 -0.69920797 2.59386689 0 0 Z " fill="#283983" transform="translate(7,87)"/>
<path d="M0 0 C1.04478516 -0.00257812 2.08957031 -0.00515625 3.16601562 -0.0078125 C4.26236328 -0.00007813 5.35871094 0.00765625 6.48828125 0.015625 C7.56529297 0.00789063 8.64230469 0.00015625 9.75195312 -0.0078125 C23.29386146 0.0253988 23.29386146 0.0253988 28.73828125 4.890625 C31.23098093 8.96958811 31.68689797 11.61351222 30.80078125 16.265625 C29.30078125 19.765625 29.30078125 19.765625 27.80078125 22.265625 C27.14078125 22.265625 26.48078125 22.265625 25.80078125 22.265625 C25.30578125 23.750625 25.30578125 23.750625 24.80078125 25.265625 C13.5217466 33.60439848 -1.07219719 31.36094772 -14.19921875 30.265625 C-10.47267517 14.12988045 -10.47267517 14.12988045 -8.57421875 6.828125 C-8.35507812 5.98378906 -8.1359375 5.13945313 -7.91015625 4.26953125 C-6.37481084 -0.05811818 -4.16640689 0.0098889 0 0 Z " fill="#273983" transform="translate(29.19921875,29.734375)"/>
<path d="M0 0 C10.56 0 21.12 0 32 0 C31.38125 2.51625 30.7625 5.0325 30.125 7.625 C29.83906982 8.79603271 29.83906982 8.79603271 29.54736328 9.99072266 C29.38993652 10.6254248 29.23250977 11.26012695 29.0703125 11.9140625 C28.91320801 12.5529541 28.75610352 13.1918457 28.59423828 13.85009766 C27.83470955 16.59800646 26.90154793 19.29535621 26 22 C15.77 22 5.54 22 -5 22 C-3.52513944 14.62569719 -1.82395104 7.29580415 0 0 Z " fill="#F1B316" transform="translate(149,8)"/>
<path d="M0 0 C3 1.25 3 1.25 5 4 C5.70175685 8.11850744 5.70175685 11.88149256 5 16 C2.85518861 18.94911567 1.61128536 19.70113255 -1.9375 20.359375 C-5.78765149 20.62188533 -7.6211324 20.24183038 -10.9375 18.125 C-14.29451206 14.6662603 -14.47032094 11.94849811 -14.40234375 7.265625 C-14 5 -14 5 -11.5 1.9375 C-7.61110865 -0.71025581 -4.59738237 -0.65676891 0 0 Z M-8 3 C-8 3.33 -8 3.66 -8 4 C-5.36 4.33 -2.72 4.66 0 5 C-0.226875 6.093125 -0.45375 7.18625 -0.6875 8.3125 C-1.40146383 11.90531273 -1.40146383 11.90531273 0.4375 13.9375 C0.953125 14.288125 1.46875 14.63875 2 15 C3.42041821 12.15916359 3.31452272 10.14522722 3 7 C1.56338689 4.47993156 1.56338689 4.47993156 -1 3 C-4.6675213 2.66582071 -4.6675213 2.66582071 -8 3 Z M-10 5 C-11.38125018 7.76250036 -11.19079306 9.94731099 -11 13 C-10.34 13.66 -9.68 14.32 -9 15 C-9 11.7 -9 8.4 -9 5 C-9.33 5 -9.66 5 -10 5 Z M-6 7 C-6 7.66 -6 8.32 -6 9 C-5.01 9 -4.02 9 -3 9 C-3 8.34 -3 7.68 -3 7 C-3.99 7 -4.98 7 -6 7 Z M-6 11 C-6.33 12.98 -6.66 14.96 -7 17 C-5.02 17 -3.04 17 -1 17 C-2.30406884 14.98079663 -3.63823419 12.98075027 -5 11 C-5.33 11 -5.66 11 -6 11 Z " fill="#4B5797" transform="translate(770,44)"/>
<path d="M0 0 C3.40143514 0.63987394 4.84780206 1.64862432 6.97265625 4.37109375 C7.37638765 7.41743066 7.26619449 10.31829607 6.97265625 13.37109375 C6.64265625 13.37109375 6.31265625 13.37109375 5.97265625 13.37109375 C5.97265625 11.39109375 5.97265625 9.41109375 5.97265625 7.37109375 C5.31265625 7.37109375 4.65265625 7.37109375 3.97265625 7.37109375 C3.55371094 6.87996094 3.13476562 6.38882813 2.703125 5.8828125 C0.24322899 3.733874 -1.50724424 4.07038436 -4.71484375 4.18359375 C-5.70871094 4.21066406 -6.70257812 4.23773438 -7.7265625 4.265625 C-8.86544922 4.31783203 -8.86544922 4.31783203 -10.02734375 4.37109375 C-7.15638917 0.54315431 -4.8028819 -0.29625253 0 0 Z " fill="#414E91" transform="translate(768.02734375,43.62890625)"/>
<path d="M0 0 C0.33 0 0.66 0 1 0 C1 2.31 1 4.62 1 7 C1.66 7 2.32 7 3 7 C3.99 8.485 3.99 8.485 5 10 C7.19454681 10.57993699 7.19454681 10.57993699 9.625 10.6875 C10.44226563 10.75324219 11.25953125 10.81898437 12.1015625 10.88671875 C12.72804688 10.92410156 13.35453125 10.96148437 14 11 C13.67 11.99 13.34 12.98 13 14 C5.76813075 14.49029622 5.76813075 14.49029622 2.0625 12.125 C-0.73171839 9.24610833 -0.98124333 8.53456508 -1.125 4.4375 C-1 1 -1 1 0 0 Z " fill="#37458B" transform="translate(757,50)"/>
<path d="M0 0 C3.63 0 7.26 0 11 0 C11 0.33 11 0.66 11 1 C9.02 1 7.04 1 5 1 C5 4.3 5 7.6 5 11 C5.66 11.33 6.32 11.66 7 12 C6.01 12 5.02 12 4 12 C3.67 9.03 3.34 6.06 3 3 C2.67 4.98 2.34 6.96 2 9 C1.67 9 1.34 9 1 9 C0.45627049 5.94152152 0 3.11227195 0 0 Z " fill="#6970A8" transform="translate(757,48)"/>
<path d="M0 0 C0.33 0 0.66 0 1 0 C1 2.31 1 4.62 1 7 C1.66 7 2.32 7 3 7 C3.66 8.32 4.32 9.64 5 11 C4.01 11.33 3.02 11.66 2 12 C-0.56295176 9.33025858 -0.99337817 8.09767206 -1.25 4.3125 C-1 1 -1 1 0 0 Z " fill="#414F92" transform="translate(757,50)"/>
<path d="M0 0 C0.99 0.33 1.98 0.66 3 1 C2.01 1.33 1.02 1.66 0 2 C0 1.34 0 0.68 0 0 Z " fill="#D8D8EB" transform="translate(32,149)"/>
</svg>
